HIERARCHY
ROOT SpineBase
{
  OFFSET 0.000000 0.000000 0.000000
  CHANNELS 6 Xposition Yposition Zposition Zrotation Xrotation Yrotation
  JOINT SpineMid
  {
    OFFSET -0.000000 31.157965 0.000000
    CHANNELS 3 Zrotation Xrotation Yrotation
    JOINT SpineShoulder
    {
      OFFSET 0.025404 23.210895 -0.881349
      CHANNELS 3 Zrotation Xrotation Yrotation
      JOINT Neck
      {
        OFFSET 0.017116 7.701706 -0.659944
        CHANNELS 3 Zrotation Xrotation Yrotation
        JOINT Head
        {
          OFFSET -5.994271 13.226218 2.594150
          CHANNELS 3 Zrotation Xrotation Yrotation
          End Site
          {
            OFFSET 0 0 0
          }
        }
      }
      JOINT ShoulderLeft
      {
        OFFSET -11.276215 -4.042583 14.267688
        CHANNELS 3 Zrotation Xrotation Yrotation
        JOINT ElbowLeft
        {
          OFFSET -3.268994 -29.852065 -1.842195
          CHANNELS 3 Zrotation Xrotation Yrotation
          JOINT WristLeft
          {
            OFFSET -2.973491 -21.701128 -5.745424
            CHANNELS 3 Zrotation Xrotation Yrotation
            JOINT HandLeft
            {
              OFFSET -1.244923 0.880943 -17.693808
              CHANNELS 3 Zrotation Xrotation Yrotation
              JOINT HandTipLeft
              {
                OFFSET -2.608423 1.129824 -2.441213
                CHANNELS 3 Zrotation Xrotation Yrotation
                End Site
                {
                  OFFSET 0 0 0
                }
              }
              JOINT ThumbLeft
              {
                OFFSET -2.769543 2.365134 -3.803990
                CHANNELS 3 Zrotation Xrotation Yrotation
                End Site
                {
                  OFFSET 0 0 0
                }
              }
            }
          }
        }
      }
      JOINT ShoulderRight
      {
        OFFSET 9.135975 -2.991884 -12.704743
        CHANNELS 3 Zrotation Xrotation Yrotation
        JOINT ElbowRight
        {
          OFFSET -1.781261 -22.462152 -6.309831
          CHANNELS 3 Zrotation Xrotation Yrotation
          JOINT WristRight
          {
            OFFSET -8.800567 -19.890575 -2.417293
            CHANNELS 3 Zrotation Xrotation Yrotation
            JOINT HandRight
            {
              OFFSET -7.148928 -3.729395 0.924811
              CHANNELS 3 Zrotation Xrotation Yrotation
              JOINT HandTipRight
              {
                OFFSET -5.395723 -6.033513 1.395068
                CHANNELS 3 Zrotation Xrotation Yrotation
                End Site
                {
                  OFFSET 0 0 0
                }
              }
              JOINT ThumbRight
              {
                OFFSET -4.954876 3.815207 -5.083071
                CHANNELS 3 Zrotation Xrotation Yrotation
                End Site
                {
                  OFFSET 0 0 0
                }
              }
            }
          }
        }
      }
    }
  }
  JOINT HipLeft
  {
    OFFSET -5.053769 -0.354302 2.148131
    CHANNELS 3 Zrotation Xrotation Yrotation
    JOINT KneeLeft
    {
      OFFSET -4.550488 -29.044494 -0.087285
      CHANNELS 3 Zrotation Xrotation Yrotation
      JOINT AnkleLeft
      {
        OFFSET -2.173521 -32.429283 3.293353
        CHANNELS 3 Zrotation Xrotation Yrotation
        JOINT FootLeft
        {
          OFFSET -8.835968 -2.759564 -10.532430
          CHANNELS 3 Zrotation Xrotation Yrotation
          End Site
          {
            OFFSET 0 0 0
          }
        }
      }
    }
  }
  JOINT HipRight
  {
    OFFSET 5.030185 2.501651 -9.151520
    CHANNELS 3 Zrotation Xrotation Yrotation
    JOINT KneeRight
    {
      OFFSET 5.635463 -24.086372 -6.046181
      CHANNELS 3 Zrotation Xrotation Yrotation
      JOINT AnkleRight
      {
        OFFSET 7.649542 -39.650004 9.796126
        CHANNELS 3 Zrotation Xrotation Yrotation
        JOINT FootRight
        {
          OFFSET -8.398741 -3.336574 -9.814301
          CHANNELS 3 Zrotation Xrotation Yrotation
          End Site
          {
            OFFSET 0 0 0
          }
        }
      }
    }
  }
}
MOTION
Frames: 14
Frame Time: 0.033333
2.059859 73.585970 334.321924 -0.000000 0.000000 48.253864 -0.000000 0.000000 -48.253864 -0.000000 0.000000 0.000000 -0.000000 0.000000 0.000000 0.000000 0.000000 0.000000 -0.000000 0.000000 0.000000 -0.000000 0.000000 0.000000 -0.000000 0.000000 0.000000 -0.000000 0.000000 0.000000 0.000000 0.000000 0.000000 0.000000 0.000000 0.000000 -0.000000 0.000000 0.000000 -0.000000 0.000000 0.000000 -0.000000 0.000000 0.000000 -0.000000 0.000000 0.000000 0.000000 0.000000 0.000000 0.000000 0.000000 0.000000 -0.000000 0.000000 -48.253864 -0.000000 0.000000 0.000000 -0.000000 0.000000 0.000000 0.000000 0.000000 0.000000 -0.000000 0.000000 -48.253864 -0.000000 0.000000 0.000000 -0.000000 0.000000 0.000000 0.000000 0.000000 0.000000
2.084217 73.631901 334.153158 0.018875 0.088945 48.248076 -0.078925 -0.045148 -48.248122 -0.000000 0.000000 0.000000 -0.000000 0.000000 0.000000 0.000000 0.000000 0.000000 -0.228591 1.422181 -0.138666 0.232103 -1.421612 0.144382 -0.000000 0.000000 0.000000 -1.174975 -1.451224 -5.877484 0.000000 0.000000 0.000000 0.000000 0.000000 0.000000 0.891187 0.298064 -0.276271 -3.279507 -0.538046 0.640632 8.464224 1.556417 -1.789173 -6.705188 0.653936 -0.889049 0.000000 0.000000 0.000000 0.000000 0.000000 0.000000 -0.078925 -0.045148 -48.248122 -0.000000 0.000000 0.000000 3.105892 -3.579929 -0.369832 0.000000 0.000000 0.000000 -0.078925 -0.045148 -48.248122 -0.000000 0.000000 0.000000 -0.000000 0.000000 0.000000 0.000000 0.000000 0.000000
2.097722 73.658235 334.003730 0.031003 0.156967 48.226859 -0.137718 -0.081447 -48.227000 -0.000000 0.000000 0.000000 -0.000000 0.000000 0.000000 0.000000 0.000000 0.000000 -0.404899 2.388260 -0.227760 0.414746 -2.386571 0.244839 0.059174 -0.891560 -0.061345 -2.368832 -2.812343 -13.157388 0.000000 0.000000 0.000000 0.000000 0.000000 0.000000 1.563557 0.511207 -0.486674 -5.688374 -0.957637 1.088634 15.668131 2.694933 -3.427188 -12.685342 1.343965 -2.038137 0.000000 0.000000 0.000000 0.000000 0.000000 0.000000 -0.137718 -0.081447 -48.227000 -0.000000 0.000000 0.000000 6.313161 -7.300443 -0.533532 0.000000 0.000000 0.000000 -1.272972 -0.630367 -48.431311 0.342708 1.213518 0.193629 -0.000000 0.000000 0.000000 0.000000 0.000000 0.000000
2.100373 73.664972 333.873637 0.036364 0.203971 48.190252 -0.176275 -0.108875 -48.190484 -0.000000 0.000000 0.000000 0.269750 0.764576 0.291119 0.000000 0.000000 0.000000 -0.528208 2.877502 -0.268756 1.180399 -3.531735 0.253885 -0.564510 -0.821669 -0.500117 -3.638741 -5.280544 -21.446369 0.000000 0.000000 0.000000 0.000000 0.000000 0.000000 2.013498 0.640959 -0.627643 -7.274464 -1.238871 1.373693 21.714905 3.519764 -4.868594 -18.008351 2.120258 -3.403210 0.000000 0.000000 0.000000 0.000000 0.000000 0.000000 -0.176275 -0.108875 -48.190484 -0.000000 0.000000 0.000000 9.525562 -11.005828 -0.469401 0.000000 0.000000 0.000000 -1.569697 -0.816446 -48.455407 0.394789 1.512055 0.248460 -0.000000 0.000000 0.000000 0.000000 0.000000 0.000000
2.092172 73.652112 333.762882 0.034951 0.229904 48.138134 -0.194547 -0.127394 -48.138421 -0.000000 0.000000 0.000000 0.297403 0.863757 0.330021 0.000000 0.000000 0.000000 -0.597716 2.879091 -0.262881 1.451749 -3.494907 0.203861 -0.800462 -1.586077 -1.659450 -5.080483 -8.292815 -30.154221 0.000000 0.000000 0.000000 0.000000 0.000000 0.000000 2.239555 0.688768 -0.697170 -8.080979 -1.372081 1.517017 26.721698 4.119770 -6.099988 -22.757276 3.010665 -4.947384 0.000000 0.000000 0.000000 0.000000 0.000000 0.000000 -0.194547 -0.127394 -48.138421 -0.000000 0.000000 0.000000 12.623064 -14.516171 -0.187121 0.000000 0.000000 0.000000 -1.651702 -0.922863 -48.435793 0.371869 1.617903 0.278766 -0.000000 0.000000 0.000000 0.000000 0.000000 0.000000
2.073117 73.619656 333.671463 0.026769 0.234756 48.070227 -0.192538 -0.136953 -48.070512 -0.000000 0.000000 0.000000 0.294299 0.885088 0.340231 0.000000 0.000000 0.000000 -0.612491 2.391634 -0.210959 1.655925 -2.846109 0.073753 -1.135829 -2.651174 -4.125832 -6.458790 -11.593231 -37.945188 0.000000 0.000000 0.000000 0.000000 0.000000 0.000000 2.242218 0.655850 -0.694738 -8.144157 -1.355010 1.530919 30.803759 4.564865 -7.126016 -27.015596 4.030030 -6.645341 0.000000 0.000000 0.000000 0.000000 0.000000 0.000000 -0.192538 -0.136953 -48.070512 -0.000000 0.000000 0.000000 15.470201 -17.654988 0.267854 0.000000 0.000000 0.000000 -1.520769 -0.950906 -48.371980 -0.168007 0.875686 0.058137 0.442698 0.657314 0.233808 0.000000 0.000000 0.000000
2.020116 73.553298 333.655640 -0.018975 0.201109 48.009491 -0.136782 -0.148646 -48.009635 -0.000000 0.000000 0.000000 0.300875 0.749340 0.277946 0.000000 0.000000 0.000000 -0.000000 0.000000 0.000000 1.023448 0.024394 -0.274848 84.966597 12.605983 179.149486 106.202855 18.665018 97.099309 0.000000 0.000000 0.000000 0.000000 0.000000 0.000000 1.493375 0.409448 -0.457344 -6.591134 -1.067251 1.253927 35.369199 5.146296 -8.630368 -32.698032 5.052681 -8.752826 0.000000 0.000000 0.000000 0.000000 0.000000 0.000000 -0.136782 -0.148646 -48.009635 -0.000000 0.000000 0.000000 18.740126 -21.120823 1.003485 0.000000 0.000000 0.000000 -0.920785 -0.915884 -48.285473 -0.597125 0.426188 0.012047 0.546229 0.669460 0.261058 0.000000 0.000000 0.000000
2.000818 73.481535 333.589895 -0.014963 0.189415 48.002520 -0.130757 -0.137857 -48.002652 -0.000000 0.000000 0.000000 -0.000000 0.000000 0.000000 0.000000 0.000000 0.000000 -0.131039 -2.135068 0.239721 1.754244 2.633001 -0.808038 87.947959 17.515100 -176.019312 112.044619 11.926736 90.719424 0.000000 0.000000 0.000000 0.000000 0.000000 0.000000 -0.000000 0.000000 0.000000 -5.324759 -0.292386 0.748179 39.848883 5.463447 -10.742807 -35.668232 4.446905 -8.867265 0.000000 0.000000 0.000000 0.000000 0.000000 0.000000 -0.408045 -0.982352 -47.885803 -0.440517 0.772015 -0.116591 21.168149 -23.572213 1.764610 0.000000 0.000000 0.000000 -0.130757 -0.137857 -48.002652 -0.607548 -0.709432 -0.290589 0.603989 0.712465 0.283072 0.000000 0.000000 0.000000
1.960783 73.384943 333.534960 -0.025916 0.139938 47.924968 -0.086506 -0.113010 -47.925021 -0.000000 0.000000 0.000000 -0.000000 0.000000 0.000000 0.000000 0.000000 0.000000 0.136772 -5.363813 0.587538 2.242750 7.130912 -1.681270 -2.906046 2.830025 -27.170688 -2.904320 -28.417688 -41.634803 0.000000 0.000000 0.000000 0.000000 0.000000 0.000000 -1.599103 -0.483660 0.480872 -2.934116 0.692134 0.013778 41.344881 5.465187 -11.247847 -37.387029 5.265558 -10.096160 0.000000 0.000000 0.000000 0.000000 0.000000 0.000000 -0.287334 -1.324276 -47.779156 -0.762119 0.962662 -0.141982 21.448771 -23.865445 1.710631 0.000000 0.000000 0.000000 -0.086506 -0.113010 -47.925021 -0.595949 -0.677995 -0.281441 0.592654 0.680878 0.274393 0.000000 0.000000 0.000000
1.965819 73.307796 333.471320 0.018207 0.082793 47.853105 -0.073603 -0.042057 -47.853146 -0.000000 0.000000 0.000000 -0.000000 0.000000 0.000000 0.000000 0.000000 0.000000 -0.032169 -3.188291 0.350909 2.238176 4.491976 -1.255318 -3.581479 -3.868388 -22.108925 -7.685120 -17.095376 -40.774293 0.000000 0.000000 0.000000 0.000000 0.000000 0.000000 -0.000000 0.000000 0.000000 -3.528504 0.168249 0.354794 42.590295 5.369415 -9.734197 -42.928434 9.838858 -15.589133 0.000000 0.000000 0.000000 0.000000 0.000000 0.000000 -0.358131 -1.575007 -47.665531 -0.941693 1.242667 -0.181418 18.598355 -20.965079 1.103970 0.000000 0.000000 0.000000 1.075041 -0.105829 -47.867719 -1.368396 -1.493713 -0.268718 0.547267 0.687183 0.264655 0.000000 0.000000 0.000000
1.838242 73.259182 333.434532 -0.123426 -0.007337 47.801577 0.088341 -0.086509 -47.801519 -0.000000 0.000000 0.000000 -0.000000 0.000000 0.000000 0.000000 0.000000 0.000000 -0.028766 -3.199099 0.351981 2.179019 5.522283 -1.392159 -3.392032 -4.665565 -20.920088 -2.460912 -21.596772 -37.400717 0.000000 0.000000 0.000000 0.000000 0.000000 0.000000 -0.996421 -0.594290 0.322118 -0.560702 0.722889 -0.181169 41.573979 5.353358 -7.911620 -44.243371 14.511062 -20.039331 0.000000 0.000000 0.000000 0.000000 0.000000 0.000000 -0.400417 -1.719714 -47.582988 -0.876159 1.462423 -0.215053 22.223779 -24.471259 3.178523 0.000000 0.000000 0.000000 1.119983 -0.608288 -47.968908 -1.078263 -0.416968 0.169721 -0.000000 0.000000 0.000000 0.000000 0.000000 0.000000
1.607509 73.200319 333.427344 -0.353006 -0.262287 47.120336 0.432405 -0.080204 -47.120841 -0.000000 0.000000 0.000000 -0.000000 0.000000 0.000000 0.000000 0.000000 0.000000 -0.411520 -4.836200 0.539116 1.386163 9.241430 -1.518784 -2.277234 -9.092236 -19.776734 15.388952 -30.119727 -23.210281 0.000000 0.000000 0.000000 0.000000 0.000000 0.000000 1.282260 -0.735187 -0.294477 0.868368 1.067602 -0.133392 36.586252 5.150155 -4.952018 -39.458292 16.180232 -21.153365 0.000000 0.000000 0.000000 0.000000 0.000000 0.000000 -0.285323 -1.564102 -46.892139 -0.592897 1.538021 -0.231044 24.040091 -26.182166 3.733750 0.000000 0.000000 0.000000 3.369088 -0.398314 -47.215021 -2.934826 -2.943901 -0.329272 0.699965 1.008757 0.361757 0.000000 0.000000 0.000000
1.411659 73.069078 333.442137 -0.514682 -0.658717 45.777932 0.117381 -0.388827 -45.788330 0.057841 -0.047753 -0.001802 0.096187 0.893538 0.005510 0.000000 0.000000 0.000000 -0.753650 -6.862617 0.867227 -0.328971 15.240406 -1.357276 0.025614 -14.119321 -17.815768 42.439844 -34.699749 -0.418733 0.000000 0.000000 0.000000 0.000000 0.000000 0.000000 4.320938 0.367874 -1.191536 1.521797 1.732517 -0.194606 35.156527 4.917445 -2.314044 -40.247972 18.136104 -23.613362 0.000000 0.000000 0.000000 0.000000 0.000000 0.000000 -0.361502 -0.885371 -45.548911 1.555263 1.549384 -0.138375 22.802524 -26.615296 2.806473 0.000000 0.000000 0.000000 5.208982 1.417115 -45.421127 -2.522080 -5.996922 -0.993958 0.527953 2.200046 -0.671023 0.000000 0.000000 0.000000
1.336111 72.915207 333.418616 -0.578675 -1.061994 44.123779 0.065098 -0.582195 -44.138113 0.099281 -0.140017 0.003124 -0.105902 0.785402 -0.330994 0.000000 0.000000 0.000000 -1.887579 -9.811971 1.234989 -2.133283 22.921583 -0.725976 3.092927 -19.832301 -16.051282 67.219911 -28.292929 22.433032 0.000000 0.000000 0.000000 0.000000 0.000000 0.000000 7.214072 1.345730 -2.199552 2.308230 1.398446 0.185551 34.720406 5.535106 -2.635897 -38.272165 15.862494 -22.199280 0.000000 0.000000 0.000000 0.000000 0.000000 0.000000 -0.672248 0.125403 -43.896299 3.320840 1.534477 -0.086475 15.086732 -19.825839 -0.342328 0.000000 0.000000 0.000000 6.380782 3.829741 -43.238910 -1.390732 -9.033177 -1.688860 0.200265 3.343354 -1.522959 0.000000 0.000000 0.000000
